<?xml version="1.0" encoding="utf-8"?>
<!-- Generator: Adobe Illustrator 22.1.0, SVG Export Plug-In . SVG Version: 6.00 Build 0)  -->
<svg version="1.1" id="Layer_1" xmlns="http://www.w3.org/2000/svg" xmlns:xlink="http://www.w3.org/1999/xlink" x="0px" y="0px"
	 viewBox="0 0 500 500" style="enable-background:new 0 0 500 500;" xml:space="preserve">
<style type="text/css">
	.st0{fill:#4114A5;}
	.st1{opacity:0.13;}
	.st2{fill:#070707;}
	.st3{fill:#F4F4F4;}
	.st4{fill:#E5E5E5;}
	.st5{fill:#CECECE;}
	.st6{fill:#3F434F;}
	.st7{fill:#292B37;}
	.st8{fill:#FFFFFF;}
	.st9{fill:#DD7352;}
	.st10{fill:#252525;}
	.st11{fill:#262E3C;}
	.st12{opacity:0.18;}
	.st13{fill:#DCE7F4;}
	.st14{fill:#EC610E;}
	.st15{fill:#DD5120;}
	.st16{fill:#2B3A47;}
	.st17{fill:#90959B;}
	.st18{fill:#797E84;}
	.st19{fill:#F8FFDC;}
	.st20{fill:#FCFCFC;}
	.st21{fill:#CAD9DD;}
	.st22{fill:#E2EAED;}
	.st23{fill:#19B2B8;}
</style>
<rect x="0.3" class="st0" width="500" height="500"/>
<g>
	<g>
		<g class="st1">
			<polygon class="st2" points="349.9,304.1 336.6,265.7 346.4,300.6 			"/>
		</g>
		<g class="st1">
			<polygon class="st2" points="346.8,301 384.7,313.9 350.4,304.5 			"/>
		</g>
		<polygon class="st3" points="303.6,293.2 357.6,347.1 389.3,315.3 347.6,303.1 335.3,261.4 		"/>
		<g class="st1">
			<polygon class="st2" points="359.2,345.5 351,304.1 357.6,347.1 			"/>
		</g>
		<g class="st1">
			<polygon class="st2" points="305.2,291.6 346.6,299.7 303.6,293.2 			"/>
		</g>
		<polygon class="st4" points="350.4,300.3 357.6,347.1 303.6,293.2 		"/>
		<g class="st1">
			<path class="st2" d="M344.8,310.2l44.6,5.2l-54.2-53.9l5.4,44.5C341,308.1,342.7,309.8,344.8,310.2z"/>
		</g>
		<path class="st5" d="M346.2,308.7l43.2,6.5l-54-53.8l6.7,43.1C342.3,306.7,344,308.4,346.2,308.7z"/>
	</g>
	<circle class="st6" cx="135.6" cy="227.6" r="31.2"/>
	<path class="st7" d="M135.6,196.5v62.4c-17.3,0-31.2-14-31.2-31.2C104.4,210.4,118.4,196.5,135.6,196.5z"/>
	<path class="st8" d="M160.4,227.6c0,1.1-0.1,2.2-0.2,3.3c-1.6,12.1-12,21.4-24.5,21.4c-13.7,0-24.7-11.1-24.7-24.7
		c0-3.5,0.7-6.9,2.1-9.9c3.8-8.7,12.5-14.8,22.7-14.8C149.3,202.9,160.4,214,160.4,227.6z"/>
	<polygon class="st9" points="138.3,227.6 151.8,214.6 136.2,225.1 	"/>
	<polygon class="st9" points="132.8,228.2 124.4,221.2 134.6,225.4 	"/>
	
		<rect x="142.6" y="226.8" transform="matrix(0.6992 -0.7149 0.7149 0.6992 -125.2751 172.8864)" class="st10" width="0.4" height="17.1"/>
	<rect x="135.3" y="202.9" class="st11" width="1" height="2.5"/>
	
		<rect x="147.1" y="205.9" transform="matrix(0.8656 0.5007 -0.5007 0.8656 123.3431 -45.9779)" class="st11" width="0.5" height="1.7"/>
	
		<rect x="156" y="214.6" transform="matrix(0.4985 0.8669 -0.8669 0.4985 265.1074 -27.3527)" class="st11" width="0.5" height="1.7"/>
	
		<rect x="156.2" y="238.5" transform="matrix(-0.503 0.8643 -0.8643 -0.503 442.0226 224.581)" class="st11" width="0.5" height="1.7"/>
	
		<rect x="147.5" y="247.4" transform="matrix(-0.8682 0.4962 -0.4962 -0.8682 399.2437 390.4099)" class="st11" width="0.5" height="1.7"/>
	
		<rect x="123.6" y="247.6" transform="matrix(-0.8629 -0.5053 0.5053 -0.8629 105.1493 525.4052)" class="st11" width="0.5" height="1.7"/>
	
		<rect x="114.8" y="238.9" transform="matrix(-0.4941 -0.8694 0.8694 -0.4941 -36.5937 458.1731)" class="st11" width="0.5" height="1.7"/>
	
		<rect x="114.6" y="214.9" transform="matrix(0.5075 -0.8616 0.8616 0.5075 -129.366 205.2498)" class="st11" width="0.5" height="1.7"/>
	
		<rect x="123.4" y="206.1" transform="matrix(0.8707 -0.4918 0.4918 0.8707 -85.829 87.5592)" class="st11" width="0.5" height="1.7"/>
	<rect x="135.3" y="249.9" class="st11" width="1" height="2.5"/>
	
		<rect x="158.6" y="226.4" transform="matrix(-1.836970e-16 1 -1 -1.836970e-16 386.7629 68.5318)" class="st11" width="1" height="2.5"/>
	
		<rect x="111.6" y="226.4" transform="matrix(-1.836970e-16 1 -1 -1.836970e-16 339.7968 115.498)" class="st11" width="1" height="2.5"/>
	<path class="st11" d="M138.5,227.6c0,1.6-1.3,2.8-2.8,2.8c-1.6,0-2.8-1.3-2.8-2.8c0-1.6,1.3-2.8,2.8-2.8
		C137.2,224.8,138.5,226.1,138.5,227.6z"/>
	<path class="st8" d="M137.6,227.6c0,1.1-0.9,1.9-1.9,1.9s-1.9-0.9-1.9-1.9c0-1.1,0.9-1.9,1.9-1.9S137.6,226.6,137.6,227.6z"/>
	<path class="st12" d="M135.7,252.4c-1.1,0-2.2-0.1-3.3-0.2c34.3-16.3,13.2-47.2,13.2-47.2s0,0,0,0c8.7,3.8,14.8,12.5,14.8,22.7
		C160.4,241.4,149.3,252.4,135.7,252.4z"/>
	<path class="st7" d="M362.1,388.6l0-10.8l-2.4,0.9c-0.2-0.5-0.4-1-0.6-1.5l-17.4-39c-4.3-9.6-14.8-17.3-23.7-17.3H148.5
		c-8.8,0-19.3,7.7-23.7,17.3L107.5,377c-0.7,1.6-1.3,3.3-1.8,4.9l-1.2-3.1l0,11.4h0c0,8.7,4.5,13.8,12.8,13.8h231.9
		C358,404,362.5,396.9,362.1,388.6L362.1,388.6z"/>
	<path class="st6" d="M349.3,391.9H117.4c-12.1,0-16.3-12.7-9.9-26.8l17.4-38.6c4.3-9.6,14.8-16.9,23.7-16.9h169.6
		c8.8,0,19.3,7.3,23.7,16.9l17.4,38.6C365.6,379.2,361.4,391.9,349.3,391.9z"/>
	<polygon class="st8" points="312.7,317.8 161.9,317.8 141.5,385.6 333.2,385.6 	"/>
	<path class="st8" d="M140.7,338.6l-2-0.7c-0.6-0.2-1.3,0.1-1.5,0.7l-7.6,22.7c-0.2,0.6,0.1,1.3,0.7,1.5l2,0.7
		c0.6,0.2,1.3-0.1,1.5-0.7l7.6-22.7C141.6,339.5,141.3,338.8,140.7,338.6z"/>
	<path class="st7" d="M190.1,245.3c6.2,1.5,24.5,7.3,43.3,25.4c0.6,0.6,1.6,0.5,2.1-0.2l12.1-16.8c0.6-0.8,0.2-1.9-0.8-2.2
		c-6.1-1.7-24.7-8.2-40.2-27.5c-0.6-0.7-1.7-0.7-2.2,0l-15.2,19C188.7,243.8,189.1,245,190.1,245.3z"/>
	<path class="st8" d="M222.6,115.1c-3.2,18.3-14.1,37.4-30.3,53c-6,5.8-11.5,10.5-15,13.4l19.3,23.1l19.1,22.9
		c3.5-2.9,9.1-7.4,16-12.3c18.3-13.1,39-20.3,57.5-20.2c3.3,0,6.2,0.6,10.2,0.6l-37.7-45.2l-37.8-45.4
		C223.6,108.4,223.1,111.9,222.6,115.1z"/>
	<path class="st13" d="M261.5,150.4l37.8,45.3c-3.9,0-6.9-0.6-10.2-0.6c-18.6-0.2-39.3,7.1-57.6,20.2c-6.8,4.9-12.4,9.4-15.9,12.3
		l-19.2-23L261.5,150.4z"/>
	
		<rect x="260.4" y="88.6" transform="matrix(0.7685 -0.6399 0.6399 0.7685 -33.6702 203.3533)" class="st14" width="7.6" height="119.2"/>
	
		<rect x="279.4" y="141.3" transform="matrix(0.7685 -0.6399 0.6399 0.7685 -43.9094 220.8573)" class="st15" width="7.6" height="59.6"/>
	<path class="st14" d="M216.3,227.4l-17.8,14.8c-12.8,10.6-31.9,8.9-42.6-3.9l0,0c-10.6-12.8-8.9-31.9,3.9-42.6l17.8-14.8
		L216.3,227.4z"/>
	<path class="st15" d="M197,204.1l19.3,23.1l-17.9,14.9c-12.7,10.6-32,8.4-42.3-3.9L197,204.1z"/>
	<path class="st8" d="M251.6,231.8c0,0.2,0,0.3-0.1,0.5c0,0,0,0.1,0,0.1c-0.1,0.4-0.2,0.9-0.4,1.3c0,0,0,0,0,0.1
		c-0.2,0.7,0.6,1.6,1.4,1.6c1.4,0,2.8,0.6,4,1.4c2.3,1.6,3.3,3.7,3.5,6.1c0,0.6,0,1.2-0.1,1.8c0,0.1,0,0.1,0,0.2
		c0,0.3-0.1,0.6-0.2,0.9c0,0,0,0,0,0.1c-0.2,0.9,0.6,1.9,1.6,2c0,0,0.1,0,0.1,0c2.4,0,4.5,1.3,5.8,3.6c1,1.9,1.5,3.9,1.2,5.8
		c0,0.3-0.1,0.5-0.2,0.7c-0.2,0.6-0.2,1,0.4,1.5c0.4,0.4,0.8,0.6,1.3,0.6c1.3,0,2.6,0.3,3.8,1.2c0.9,0.7,1.6,1.5,2,2.5
		c0.7,1.5,1,3,1.1,4.5c0,0.7-0.3,2.2-0.6,3.3c-0.2,0.6-1,2.1-1.2,2.6c-0.8,1.5-1.6,2.9-2.5,4.2c-2.9,4.5-6,8.3-9,11.5
		c-4.7,4.9-10.2,9.2-16.2,12.5c-1.2,0.6-2.3,0.9-3.6,1.3c-1.7,0.5-1.3,1.5-1.3,3.1c0,2.4,0,13,0.2,13c0.2,1.7,1.4,3.4,0.2,4.6
		c-1.2,1.2-3.1,1.1-4.8,1c-11.1-1.1-34.9-2.8-34.9-2.8s2-29.1-2-37.1c-0.9-1.8-2.5-3.3-3.4-5.2c-1.1-2.4-1.1-5.2-1.1-7.9
		c0-4.2,0-8.3,0-12.5c0-2.4,0-4.9,0.7-7.2c0.7-2.3,2.1-4.5,4.3-5.6c2.2-1.1,5.1-0.7,6.6,1.3c0.9,1.3,0.9,2.9,1.5,4.3
		c0.4,0.9,1.1,1.6,2,2c1,0.3,2.1,0.1,2.9-0.5c1-0.8,1.5-1.9,1.9-3.1c0.3-1,0.8-2,1.4-2.9c1.2-1.8,2.9-3.1,4.6-4.5
		c1.7-1.3,3.4-2.6,4.9-4.2c5.1-5.5,11.3-11.7,12.2-12.6c0.7-0.8,1.4-1.6,2.2-2.3c1.3-1.2,3.5-1.7,6-0.2
		C250.3,225.9,251.9,228.9,251.6,231.8z"/>
	<rect x="197.3" y="332.5" class="st7" width="49" height="26.9"/>
	<rect x="197.3" y="333" class="st7" width="25.3" height="26.4"/>
	<path class="st16" d="M247.8,312.1c2.3,0,4.1,1.7,4.1,3.8v13.8c0,2.1-1.8,3.8-4.1,3.8h-50.4c-2.3,0-4.1-1.7-4.1-3.8v-13.8
		c0-2.1,1.8-3.8,4.1-3.8H247.8z"/>
	<path class="st7" d="M140.5,255.5c7.5-1.7,15,3,16.7,10.5c1.7,7.5-3,15-10.5,16.7c-6.5,1.5-12.9-1.8-15.7-7.5l-5.6-1.6l4.3-4.5
		C129.7,262.7,134.1,257,140.5,255.5z"/>
	<path class="st8" d="M144.2,277.3c0,0,8.2-7.2,8-10.6c-0.2-3.1-2.7-3.8-2.7-3.8c-3.2-0.9-5.3,1.7-5.3,1.7s-2.2-2.6-5.4-1.7
		c0,0-2.5,0.7-2.7,3.8C135.9,270.1,144.2,277.3,144.2,277.3z"/>
	<path class="st7" d="M421.7,255.8c-9.1-17.6-30.8-24.5-48.5-15.4c-17.6,9.1-24.5,30.8-15.4,48.5c9.1,17.6,30.8,24.5,48.5,15.4
		C424,295.1,430.9,273.5,421.7,255.8z"/>
	<g>
		<path class="st8" d="M415.8,275.1c-0.1-0.1-0.2-0.3-0.3-0.4c0-0.1-0.1,0-0.2,0.1c-0.1,0.1-0.1,0.5-0.1,0.5c0,0.1,0,0.1,0,0.2
			c0,0.1,0,0.2,0,0.5c0,0,0,0.2,0,0.3c0,0.1,0.1,0.1,0.2,0.2c0.1,0.1,0.1,0.3,0.1,0.4c0.1,0.1,0.2,0,0.4,0c0.2,0,0-0.2,0.1-0.4
			c0-0.2,0.1-0.4,0-0.4c0-0.1,0-0.1,0-0.2c0-0.1,0-0.2,0-0.4c-0.1-0.2-0.1-0.3-0.1-0.4C416,275.1,415.9,275.1,415.8,275.1z"/>
		<path class="st8" d="M423.4,276.2c-0.1-0.2-0.1,0.2-0.2,0.3c-0.1,0.1-0.1-0.1-0.1-0.2c-0.1-0.1-0.2-0.4-0.3-0.4
			c-0.1-0.1-0.1-0.2-0.2-0.3c-0.1-0.1-0.1-0.1-0.1-0.3c0-0.2,0-0.3-0.2-0.4c-0.2-0.1-0.2,0.1-0.2,0.2c0,0.1-0.2,0.1-0.3,0.1
			c-0.1,0-0.1-0.2-0.2-0.3c-0.1-0.1-0.1,0.1-0.1,0.2c0,0.1,0.1,0.2,0.1,0.4c0,0.1,0,0.3,0,0.4c0,0.1,0.1,0.2,0.3,0.2
			c0,0,0.1,0,0.1,0.1c0,0.1,0.1,0.2,0.1,0.4c0,0.2,0,0.4,0.1,0.5c0.1,0.1,0.2,0.2,0.3,0.3c0.1,0.1,0.1,0.2,0.1,0.4
			c0,0.2,0.1,0.1,0.2,0.1c0.1,0,0.2,0,0.3,0c0,0.1,0,0.4,0,0.5c0,0.1,0.1,0.6,0.1,0.7c0,0.1,0.2,0.4,0.3,0.6c0.2,0.2,0,0.2,0.1,0.5
			c0.1,0.3,0.2,0,0.3-0.1c0.1-0.1,0.1-0.3,0.2-0.5c0-0.1,0-0.4,0-0.5c0.1-0.2,0.1-0.2,0.2-0.4c0.1-0.2,0-0.5-0.1-0.8
			c-0.1-0.3-0.1-0.1-0.2-0.2c-0.1-0.1-0.1-0.5-0.1-0.6c0-0.1-0.1-0.3-0.2-0.3C423.6,276.6,423.5,276.4,423.4,276.2z"/>
		<path class="st8" d="M421.9,277.1c0,0,0-0.3,0-0.5c0-0.2-0.1,0.1-0.2,0.1C421.6,276.8,421.8,277,421.9,277.1
			C421.8,277.1,421.9,277.1,421.9,277.1z"/>
		<path class="st8" d="M422.3,277.7c0.1,0,0.1-0.2,0-0.3c-0.1-0.2-0.1-0.2-0.3-0.1c-0.1,0,0,0.2,0.1,0.4
			C422.2,277.6,422.2,277.7,422.3,277.7z"/>
		<path class="st8" d="M422.8,278.2c0-0.2-0.1-0.1-0.2-0.1c-0.1,0,0,0.1,0,0.4c0,0,0,0.1,0.1,0.1
			C422.8,278.5,422.8,278.4,422.8,278.2z"/>
		<path class="st8" d="M389.8,239.1c0.1-0.1-0.2-0.1-0.3,0c-0.1,0-0.2,0.2,0,0.3C389.4,239.4,389.6,239.3,389.8,239.1z"/>
		<path class="st8" d="M388.9,239.2c0.1-0.1-0.1-0.1-0.3-0.1c-0.2,0-0.1,0.1,0.1,0.2C388.7,239.3,388.8,239.3,388.9,239.2z"/>
		<path class="st8" d="M389.8,238.9c0.1-0.1-0.4,0-0.4,0.1l0.1,0.1C389.4,239,389.7,239,389.8,238.9z"/>
		<path class="st8" d="M394.3,238.7c0.2,0-0.2-0.1-0.3-0.1c-0.1,0-0.2-0.1-0.3-0.2c0,0-0.1-0.1-0.2,0.1c-0.1,0.1,0.1,0.2,0.2,0.3
			C393.8,238.8,394.1,238.7,394.3,238.7z"/>
		<path class="st8" d="M394.2,238.8c-0.1,0-0.2,0.1-0.1,0.2c0,0,0.3,0,0.4,0.1c0.1,0.1,0.1-0.1,0.3-0.2c0.2-0.1,0.3,0,0.4-0.1
			c0.1-0.1-0.4-0.1-0.7,0C394.1,238.9,394.3,238.8,394.2,238.8z"/>
		<path class="st8" d="M395.9,238.7c0,0,0.1,0.1,0.2,0.1c0.1,0,0.2,0,0.3,0c0.1,0,0.1-0.2,0.1-0.2s0.1-0.2,0.1-0.3
			c0.1-0.1-0.1-0.1-0.2-0.1c-0.1,0-0.1,0.2-0.2,0.3c-0.1,0.1-0.2,0-0.2,0s-0.3-0.1-0.5,0C395.5,238.7,395.7,238.7,395.9,238.7z"/>
		<path class="st8" d="M377.8,258.4c-0.1,0-0.4,0-0.6,0c-0.3,0-0.4-0.1-0.6-0.1c-0.2,0-0.3,0.4-0.1,0.6c0.2,0.2,0.4,0.2,0.6,0.3
			c0.2,0.1,0.1,0.2,0.2,0.3c0,0,0.1,0.1,0.2,0c0.1-0.1,0.2-0.3,0.3-0.5C377.9,258.7,377.9,258.4,377.8,258.4z"/>
		<path class="st8" d="M374.7,257.9c0,0.1,0.1-0.1,0.2-0.2c0.2-0.1-0.1,0.2,0,0.4c0,0,0.1,0,0.2,0c0.1,0,0.1-0.1,0.1-0.3
			c0-0.2,0.1-0.2,0.2-0.3c0.1,0,0.1-0.2,0.1-0.4c0-0.2,0.1-0.5,0.1-0.6c0-0.1-0.2,0.2-0.4,0.3c-0.1,0.1-0.4,0.4-0.5,0.6
			C374.7,257.7,374.7,257.8,374.7,257.9z"/>
		<path class="st8" d="M375.7,256.3c0,0,0-0.1,0.1-0.2c0-0.1,0.2-0.3,0.2-0.5c0-0.2-0.2,0-0.2,0.1c-0.1,0.1-0.2,0.1-0.2,0.2
			C375.4,256,375.6,256.1,375.7,256.3C375.6,256.3,375.7,256.4,375.7,256.3z"/>
		<path class="st8" d="M381.8,261.1c0.2,0.1,0.1-0.1,0.2-0.1c0,0,0.2,0,0.4,0c0.3,0,0.5,0.2,0.7,0.1c0.2-0.1,0.2-0.2,0.1-0.4
			c-0.1-0.2-0.3-0.1-0.5-0.1c-0.1,0-0.1-0.1-0.3-0.1c-0.1,0-0.3,0-0.4,0c-0.1,0-0.3-0.1-0.4,0c-0.1,0,0.1,0.2-0.1,0.3
			C381.7,261,381.7,261,381.8,261.1z"/>
		<path class="st8" d="M383.1,258.4c0.1,0.1,0.1-0.1,0.3,0c0,0,0.1,0,0.1,0c0.1,0,0.1-0.2,0.1-0.3c0-0.1-0.2-0.1-0.3-0.2
			c-0.1,0-0.1,0.2-0.1,0.3C383.1,258.3,383,258.3,383.1,258.4z"/>
		<path class="st8" d="M383,259.1c0,0,0.1,0,0.1,0c0.1,0,0.1-0.1,0.1-0.2c0-0.2-0.1-0.2-0.3-0.1C382.8,258.8,382.9,259,383,259.1z"
			/>
		<path class="st8" d="M381.7,260.1c0-0.1,0.1-0.2-0.1-0.2c-0.2,0-0.1,0.2-0.1,0.3C381.5,260.2,381.7,260.2,381.7,260.1z"/>
		<path class="st8" d="M382.5,259.9c0.1-0.1,0.1-0.1,0-0.2c-0.1-0.1-0.3,0-0.2,0.2C382.4,259.8,382.4,259.9,382.5,259.9z"/>
		<path class="st8" d="M383.4,260.1c0,0,0.1,0,0.1-0.1c0-0.1,0-0.1-0.2-0.1C383.2,259.8,383.2,260,383.4,260.1z"/>
		<path class="st8" d="M383.9,259.8c0-0.1-0.1-0.1-0.2-0.1c-0.1,0-0.1,0.1,0,0.2C383.8,259.8,383.9,259.9,383.9,259.8z"/>
		<path class="st8" d="M383.7,260.3c0,0,0.1,0,0.2-0.1c0.1-0.1,0-0.1-0.1-0.1C383.7,260,383.6,260,383.7,260.3z"/>
		<path class="st8" d="M384.5,260.4c0.1-0.2-0.1-0.2-0.2-0.3c-0.1,0-0.2,0.1-0.2,0.3c0,0,0,0.1,0.1,0.2
			C384.2,260.7,384.4,260.5,384.5,260.4z"/>
		<path class="st8" d="M383.9,260.4c-0.1-0.1-0.2,0.1-0.2,0.2c0,0,0.1,0.1,0.3,0C384.1,260.5,384,260.4,383.9,260.4z"/>
		<path class="st8" d="M386.6,260.8c-0.2,0,0,0.2,0,0.3c0,0.1,0,0.2,0.2,0.4c0,0,0.2,0,0.3-0.1c0.1-0.1,0.3-0.3,0.4-0.4
			c0.1-0.1,0.4-0.1,0.4-0.2c0-0.2,0.3-0.3,0.4-0.3c0.1,0-0.1-0.1-0.2-0.1c-0.2-0.1-0.3,0.1-0.4,0.2c-0.1,0.1-0.2,0.1-0.3,0
			c-0.1-0.1-0.3,0.1-0.2,0.2C387,260.8,386.8,260.8,386.6,260.8z"/>
		<path class="st8" d="M394.9,292.4c0,0,0.1,0,0.2,0c0.1,0,0.1-0.2,0-0.3c-0.1-0.1-0.4,0.1-0.5,0.2
			C394.5,292.3,394.8,292.3,394.9,292.4z"/>
		<path class="st8" d="M396.4,292.6c0.1,0.1,0.2-0.1,0.3-0.3c0.1-0.2,0-0.1-0.3-0.2c-0.2,0-0.2,0.1-0.1,0.3
			C396.3,292.5,396.2,292.5,396.4,292.6z"/>
		<path class="st8" d="M397.5,291.5c0.1,0,0.1-0.2-0.1-0.3c-0.1-0.1-0.2,0.1-0.1,0.3C397.4,291.5,397.5,291.5,397.5,291.5z"/>
		<path class="st8" d="M398.7,292.8c0-0.3-0.2-0.3-0.4-0.4c-0.2-0.1,0-0.5-0.1-0.6c0-0.1-0.2,0.2-0.4,0.5c-0.2,0.3,0,0.4-0.1,0.6
			c-0.1,0.2-0.3,0.1-0.3,0.3c0,0.2,0.1,0.2-0.3,0.3c-0.3,0.1-0.2,0.1-0.4,0.3c-0.1,0.1-0.1,0-0.2-0.1c-0.1-0.1-0.1,0.1-0.3,0.3
			c-0.2,0.2-0.4,0.2-0.6,0.3c-0.2,0.1-0.2,0.2-0.4,0.2c-0.2,0-0.2,0.4-0.3,0.8c0,0-0.1,0.4-0.1,0.5c0.1,0.2,0.2,0.4,0.1,0.6
			c-0.1,0.2-0.3,0.5-0.3,0.7c-0.1,0.2-0.2,0.9-0.2,1.2c0.1,0.3,0.2,0.5,0.4,0.7c0.2,0.2,0.3,0.2,0.6,0.3c0.3,0,0.2-0.1,0.4-0.2
			c0.1-0.1,0.1-0.1,0.4-0.2c0.2-0.1,0.3-0.2,0.5-0.3c0.2-0.1,0.2-0.3,0.3-0.5c0.1-0.2,0.2-0.4,0.2-0.6c0.1-0.1,0.2-0.3,0.2-0.5
			c0.1-0.2,0.2-0.1,0.2-0.3c0-0.1,0-0.3,0.1-0.4c0.1-0.1,0.1-0.1,0.1-0.3c0-0.1,0.1-0.3,0.2-0.6c0.1-0.3,0-0.4,0-0.6
			c0-0.2,0.1-0.1,0.2,0c0.1,0.1,0.2-0.1,0.2-0.3c0.1-0.2-0.2-0.2-0.3-0.2c-0.1,0-0.1,0,0-0.1c0.1-0.1,0.3-0.3,0.4-0.5
			c0.1-0.2,0.1,0.2,0.2,0.2c0.1,0,0.1-0.2,0-0.4C398.7,293.6,398.7,293.1,398.7,292.8z"/>
		<path class="st8" d="M371.4,281.7c0.1,0,0-0.2-0.1-0.3c-0.1,0-0.1-0.2-0.2-0.3c-0.1-0.1-0.2,0.2-0.1,0.4c0,0.2,0,0.2,0.1,0.4
			c0,0,0,0.1,0.1,0c0.1-0.1,0-0.1,0.1-0.2C371.3,281.6,371.3,281.7,371.4,281.7z"/>
		<path class="st8" d="M369.8,282.8c-0.1,0.1,0,0.4,0.1,0.4c0,0,0.2,0.1,0.2,0c0-0.1,0-0.2-0.1-0.4
			C370,282.7,369.9,282.8,369.8,282.8z"/>
		<path class="st8" d="M375.9,246.8c0.1-0.1,0.2-0.2,0.1-0.2c0,0-0.1-0.1-0.2-0.1c0,0-0.2-0.1-0.3-0.1c-0.2,0.1-0.4,0.3-0.4,0.4
			c-0.1,0.1-0.1,0-0.2,0c0-0.1-0.1,0-0.2,0c0,0-0.2,0.1-0.2,0.1c-0.1,0-0.2,0.1-0.3,0.2c-0.1,0.1,0.1,0,0.2,0c0.1-0.1,0.2-0.1,0.3,0
			c0.1,0,0,0.1,0,0.2c0,0.1-0.2,0.3-0.3,0.5c0,0.1-0.3,0.4-0.2,0.4c0,0,0.2,0.1,0.2,0.1c0,0,0,0.1-0.1,0.2c-0.1,0.1-0.3,0.2-0.3,0.4
			c-0.1,0.2-0.4,0.3-0.5,0.4c-0.1,0.1-0.4,0.6-0.5,0.8c-0.1,0.2-0.1,0.2-0.3,0.3c-0.2,0.1-0.3,0-0.4,0.1c-0.1,0.1,0.2,0.2,0.4,0.2
			c0.2,0,0.2-0.1,0.4-0.2c0.2-0.1,0.1,0,0.3,0.1c0.1,0.1,0.5,0.2,0.8,0.2c0.2,0,0.2,0,0.5,0c0,0,0.2-0.1,0.2-0.2
			c0-0.1-0.1-0.1,0-0.3c0.1-0.1,0.2-0.1,0.4-0.2c0.2-0.1,0.2-0.2,0.2-0.3c0-0.1,0.2-0.1,0.3-0.2c0.2-0.1,0.1-0.2,0-0.3
			c-0.1-0.1-0.2,0-0.3-0.2c-0.1-0.1-0.1-0.2-0.2-0.3c0-0.1,0.1-0.2,0.1-0.3c0-0.1-0.2,0.1-0.2,0c0-0.1,0.2-0.3,0.2-0.5
			c0-0.1-0.1-0.1-0.1-0.2c-0.1-0.1,0.2-0.3,0.3-0.4c0.1-0.1,0.2-0.4,0.2-0.5c0-0.1-0.1-0.1-0.1-0.1
			C375.7,247,375.8,246.8,375.9,246.8z"/>
		<path class="st8" d="M372.1,249.6c0.2,0,0.2,0.1,0.3,0c0.1,0,0.2,0,0.3,0c0,0,0.1,0,0.1,0c0,0,0.1-0.2,0.1-0.3
			c0.1-0.1,0.3-0.4,0.4-0.5c0.1-0.1,0.2-0.2,0.3-0.3c0.2-0.1,0.2-0.1,0.3-0.2c0.1-0.1,0-0.2,0-0.3c-0.1-0.1-0.1,0-0.2,0
			c-0.1,0,0-0.1,0-0.2c0-0.1-0.1,0-0.3,0c-0.2,0-0.2,0.2-0.3,0.3c-0.1,0.2-0.2,0.1-0.2,0c-0.1-0.1-0.1-0.1-0.3,0
			c-0.2,0.1,0,0.2-0.1,0.3c-0.1,0.2-0.2,0.3-0.3,0.5c-0.2,0.3-0.1-0.1-0.2-0.1c-0.1,0-0.3,0.3-0.3,0.4c0,0.1,0,0.2,0.1,0.3
			C371.9,249.8,372,249.6,372.1,249.6z"/>
		<path class="st8" d="M371.5,249.3c-0.1,0.1,0,0.1,0,0.2c0,0,0.2-0.2,0.2-0.3C371.7,249,371.6,249.2,371.5,249.3z"/>
		<path class="st8" d="M374.4,246.9c0,0,0.1-0.1,0.1-0.2C374.4,246.7,374.4,246.8,374.4,246.9C374.2,246.9,374.3,247,374.4,246.9z"
			/>
		<path class="st8" d="M374.7,246.8c0.1-0.1,0-0.1,0-0.1s-0.2,0-0.2,0.1C374.5,246.8,374.6,246.9,374.7,246.8z"/>
		<path class="st8" d="M374.8,246.7c0,0,0.1,0,0.2-0.1c0.1,0,0.2-0.2,0.3-0.3c0-0.2-0.1-0.1-0.2,0c-0.1,0-0.2,0.1-0.2,0.2
			C374.8,246.5,374.8,246.6,374.8,246.7C374.8,246.6,374.7,246.7,374.8,246.7z"/>
		<path class="st8" d="M376.4,246.2c0,0-0.2,0.1-0.2,0.2C376.2,246.4,376.4,246.3,376.4,246.2C376.5,246.2,376.5,246.2,376.4,246.2z
			"/>
		<path class="st8" d="M377.2,245.6c0,0.1,0,0.2-0.1,0.3c-0.1,0.2-0.1,0.2-0.1,0.2c0,0,0.1-0.1,0.2-0.1c0.1-0.1,0.2-0.2,0.3-0.2
			c0.1-0.1,0-0.1,0-0.3C377.6,245.4,377.2,245.5,377.2,245.6z"/>
		<path class="st8" d="M393.3,241.8c0.1,0.1,0.3,0.1,0.4,0.1c0,0,0.1,0,0.2-0.1c0.1,0,0,0-0.1-0.1c-0.2,0-0.3-0.1-0.4-0.2
			C393.2,241.6,393.2,241.7,393.3,241.8z"/>
		<path class="st8" d="M392.7,241.5c-0.1,0-0.2-0.1-0.3-0.2c-0.1-0.1-0.2-0.3-0.2-0.4c0-0.1-0.2,0-0.4,0c-0.2,0-0.3,0.1-0.3,0.2
			c-0.1,0.1,0,0.2,0,0.2c-0.1,0,0,0.1,0.1,0.2c0.1,0.1,0.2,0,0.2,0.1c0.1,0.1,0,0.2,0.1,0.2c0.1,0,0.2,0,0.3-0.1
			c0.1-0.1,0-0.1,0.1-0.1c0.1,0,0,0.2,0.2,0.2c0,0,0.2,0,0.4-0.1c0.2,0,0.1,0,0.1-0.1C393,241.5,392.9,241.5,392.7,241.5z"/>
		<path class="st8" d="M391.6,240.5c0.1,0.1,0,0.2-0.1,0.3c-0.1,0.1,0.2,0,0.4,0c0,0,0.3,0,0.3,0c0,0,0-0.1,0.1-0.2
			c0-0.1,0.2-0.1,0.4-0.1c0.2,0-0.1-0.1-0.1-0.2c-0.1-0.1,0.1-0.2,0.3-0.2c0.1-0.1,0-0.2-0.1-0.2c-0.1-0.1,0.1-0.1,0.3-0.1
			c0.1,0,0.2,0,0.2-0.1c0-0.1,0.1,0.1,0.3,0.1c0.2,0-0.1-0.1-0.1-0.2c-0.1,0-0.3,0-0.4,0c-0.1,0-0.2,0-0.3-0.1
			c-0.1-0.1-0.1,0-0.1,0.1c-0.1,0.1-0.1,0.2-0.2,0.2c0,0-0.3,0-0.3,0.1c-0.1,0.1,0.1,0.2,0,0.3c-0.1,0.1-0.1,0.1-0.3,0.1
			c-0.2,0-0.2,0-0.3,0.1C391.3,240.4,391.5,240.4,391.6,240.5z"/>
		<path class="st8" d="M376.9,242.6c0.1-0.2-0.4-0.1-0.4-0.1c-0.1,0-0.2,0.2-0.5,0.2c-0.2,0-0.1-0.1-0.3-0.1c-0.2,0-0.5,0.2-0.6,0.4
			c-0.2,0.2-0.6,0.5-0.5,0.6c0.1,0,0.2,0.1,0.5,0.1c0.2,0,0.2,0,0.4,0c0.2,0,0.2-0.1,0.3-0.2c0.1,0,0.2,0.1,0.5-0.1
			c0,0,0.3-0.2,0.4-0.3C376.8,243,376.8,242.8,376.9,242.6z"/>
		<path class="st8" d="M371.1,243c0.1-0.1,0.9-0.5,1.1-0.6c0.2-0.1,0.6-0.2,0.7-0.3c0.1-0.1,0.2-0.3,0.4-0.3c0.2,0,0.5,0,0.7-0.1
			c0.2-0.1,0.5-0.2,0.5-0.2s0.1,0.1,0.2,0c0.2-0.1,0.5-0.2,0.6-0.3c0.1-0.1,0.7-0.2,0.8-0.2c0.1,0,0.3-0.1,0.4,0
			c0,0.1,0.2,0.1,0.3,0.1c0.1,0,0.5-0.2,0.5-0.2l0.1,0.1c0.2-0.1,0.4-0.2,0.3-0.3c-0.1-0.1-0.1-0.1,0.1-0.2c0.1-0.1,0.5-0.2,0.4-0.1
			c-0.1,0.1,0,0.2,0.3,0c0.3-0.2,1-0.7,1.1-0.6c0,0,0,0.2,0.2,0.1c0.1-0.1,0.4-0.3,0.6-0.3c0.1-0.1,0.4-0.1,0.4-0.1
			c0-0.1,0.3-0.2,0.4-0.2c0.1,0,0.6-0.2,0.7-0.3c0.1,0,0.4-0.2,0.5-0.3c0.1-0.1,0.3-0.2,0.6-0.3c0.2-0.1,0.3-0.1,0.7-0.2
			c0.3-0.1,0.8-0.4,1-0.4c0.1,0,0.7,0,0.6-0.2c-0.1-0.1-0.5-0.2-0.7-0.3c-0.3-0.1-0.6,0-1-0.1c-0.4,0-0.1,0-0.6-0.1
			c-0.5-0.1-0.8,0-1,0c-0.2,0-0.8,0.1-1,0.2c-0.2,0.1-0.6,0.2-0.7,0.4c0,0.1-0.1,0.1-0.5,0.2c-0.4,0.1-1.4,0.6-1.6,0.7
			c-0.2,0.1-0.5,0.2-0.8,0.3c-0.2,0.1-1.1,0.4-1.5,0.6c-0.4,0.2-0.9,0.4-1.3,0.6c-0.3,0.2-0.7,0.3-1.1,0.6c-0.4,0.3-1.1,0.7-1.4,0.9
			c-0.3,0.2-0.7,0.8-0.8,0.9C371,242.9,371,243.1,371.1,243z"/>
		<path class="st8" d="M385.5,239.6c0.1-0.1,0,0.1,0.1,0.1c0.1,0,0,0.1-0.1,0.3c-0.1,0.2,0.1,0.2,0.4,0c0,0,0.1-0.2,0-0.3
			c0-0.1,0.2-0.1,0.4-0.2c0.1-0.1,0.4-0.1,0.5-0.2c0.1-0.1-0.9-0.1-1-0.1c-0.1,0,0,0.2,0,0.3c-0.1,0.1-0.1-0.1-0.2-0.1
			c-0.1,0-0.2,0.1-0.2-0.1c0-0.2-0.1-0.1-0.2-0.1c-0.1,0,0.1,0.2-0.1,0.4C385.1,239.8,385.4,239.7,385.5,239.6z"/>
		<path class="st8" d="M386.6,239.7c-0.2,0-0.3,0.1-0.4,0.2c0,0,0.1,0,0.3,0c0.1,0,0.2,0.1,0.4-0.1
			C387.2,239.6,386.8,239.7,386.6,239.7z"/>
		<path class="st8" d="M371.8,257.2c-0.1,0-0.2,0.1-0.2,0.2c0,0.1,0,0.1,0,0.3c0,0,0.1,0,0.1,0c0.1,0,0.2-0.2,0.1-0.3
			C371.8,257.2,371.9,257.1,371.8,257.2z"/>
		<path class="st8" d="M372.2,257.6c0,0,0.1,0,0.2,0c0.1,0,0.1-0.2,0-0.3C372.3,257.4,372.2,257.5,372.2,257.6z"/>
		<path class="st8" d="M372.6,257c0-0.1-0.2,0-0.3,0.2c-0.1,0.2-0.1,0.2,0,0.2c0,0,0.1,0,0.3,0C372.7,257.2,372.6,257,372.6,257z"/>
		<path class="st8" d="M373,257.2c0.1,0,0.1-0.1,0.2-0.2c0.1-0.1,0-0.2-0.1-0.2c-0.1-0.1-0.3,0.2-0.2,0.3
			C372.9,257.1,372.9,257.2,373,257.2z"/>
		<path class="st8" d="M375.3,256.6c-0.1,0-0.2,0.2-0.2,0.3c0,0,0.1,0,0.2-0.1C375.4,256.8,375.3,256.6,375.3,256.6z"/>
		<path class="st8" d="M377.6,260c-0.1,0-0.2,0.2-0.1,0.2c0,0,0.1,0.1,0.2-0.1C377.8,260.1,377.7,260,377.6,260z"/>
		<path class="st8" d="M399.9,276.2c-0.1,0-0.1,0.1,0,0.2c0,0,0.1-0.1,0.1-0.1C400,276.1,400,276.2,399.9,276.2z"/>
		<path class="st8" d="M400.9,275.7c-0.1,0-0.5,0.2-0.3,0.4c0,0,0,0.1,0.1,0.1c0.1,0.1,0.2,0,0.3,0c0.1-0.1,0.1-0.1,0.1-0.2
			C401.1,275.9,401,275.7,400.9,275.7z"/>
		<path class="st8" d="M423.9,275.8c0-0.1-0.1-0.7-0.2-0.8c-0.1-0.2,0-0.7,0-0.8c0-0.2-0.1-0.3-0.2-0.4c-0.1-0.2-0.2-0.2-0.2-0.5
			c-0.1-0.2-0.2,0-0.3-0.1c-0.1-0.1-0.2-0.4-0.2-0.6c0-0.2-0.2-0.4-0.3-0.7c-0.1-0.2-0.1,0-0.2,0.1c-0.1,0.1-0.1-0.2-0.1-0.5
			c0-0.2,0.1-0.5,0.1-0.6c0-0.2,0-0.3-0.1-0.5c-0.1-0.1,0-0.4-0.1-0.6c0-0.2-0.2-0.5-0.1-0.6c0.1-0.1,0.1,0.2,0.2,0.3
			c0.1,0.1,0.2-0.1,0.2-0.1c0,0.1,0.2,0.8,0.5,1c0.3,0.1,0.3,0,0.4,0.2c0.1,0.2,0,0.8,0.1,1c0.1,0.2,0.1-0.1,0.2-0.5
			c0.1-0.4,0.1-0.5,0-0.9c-0.1-0.3,0.1-0.4,0.2-0.7c0.1-0.3,0-1.1-0.1-1.6c-0.1-0.5-0.5-1.3-0.8-1.9c-0.4-0.6-0.4-0.8-0.6-1.1
			c-0.2-0.3-0.2-0.6-0.3-0.9c-0.1-0.3,0-0.8,0-1c0-0.2,0.2-0.2,0.3,0c0.1,0.2,0.2,0.8,0.2,1.1c0,0.3,0.2,0.6,0.4,0.6
			c0.2,0,0-0.4,0-0.7c0-0.3-0.4-1-0.5-1.2c-0.1-0.2,0.1-0.2,0.1-0.5c0-0.3,0-0.5-0.1-0.8c-0.1-0.2,0.1-0.1,0.1-0.3
			c0-0.2-0.1-1.1-0.1-1.4c0-0.3-0.5-1.3-0.7-1.8c-0.2-0.5-0.9-1.9-1-2.3c-0.1-0.4-0.4-1-0.5-1.1c-0.1-0.1-0.7-0.7-0.9-0.9
			c-0.2-0.2-0.5-0.8-0.7-1.4c-0.2-0.6-0.2-0.3-0.6-0.4c-0.4-0.1-0.1,0.1-0.3-0.1c-0.2-0.2,0-0.5,0.2-0.6c0.2-0.1,0.1-0.1,0.2-0.5
			c0-0.1,0.1-0.2,0.1-0.3c-4.9-6.3-11.7-10.7-19.1-12.6c-0.2,0-0.8-0.1-1.2-0.1c-0.4-0.1-0.1,0.2,0.2,0.4c0.3,0.2,1.5,0.2,1.9,0.4
			c0.4,0.2,0.2,0.3-0.1,0.3c-0.3,0-0.6,0-0.7,0.2c-0.1,0.2-0.1,0.4-0.3,0.5c-0.2,0.1-1-0.6-1.2-0.7c-0.2-0.1-0.6,0.2-0.9,0.2
			c-0.3,0,0.2,0.3,0,0.4c-0.2,0.1-0.1-0.1-0.2-0.2c-0.1,0-0.3,0-0.5,0c-0.2,0-0.2,0.1-0.2,0.3c-0.1,0.1,0.1,0,0.3,0.1
			c0.2,0.1,0,0.2-0.2,0.3c-0.2,0.1,0.1,0.2,0.3,0.3c0.2,0.1,0.5,0,0.6,0c0.1,0-0.2,0.1-0.4,0.2c-0.1,0.1,0.2,0.1,0.3,0.3
			c0.1,0.1,0.2,0.1,0.5,0.1c0.3,0.1,0.6,0.3,0.7,0.5c0,0.1-0.7-0.3-0.8-0.4c-0.2-0.1-0.4,0-0.5,0c-0.1,0-0.1-0.2-0.4-0.2
			c-0.3,0,0,0.1,0.1,0.3c0.1,0.1,0.4,0.2,0.4,0.4c0,0.1-0.3,0-0.4-0.1c-0.1-0.1-0.3-0.2-0.4-0.4c-0.1-0.1-0.2-0.1-0.2,0
			c0,0.1,0.3,0.2,0.3,0.3c0.1,0.1,0.3,0.2,0.4,0.4c0.2,0.2,0.4,0.3,0.7,0.4c0.2,0.1,0.4,0,0.6,0c0.3,0,0.4,0.2,0.6,0.3
			c0.2,0.1,0.3,0.1,0.3,0.2c0,0.2-0.5-0.2-0.7-0.3c-0.1-0.1-0.4-0.1-0.6-0.1c-0.2,0,0.3,0.3,0.3,0.7c0,0.3-0.2,0.1-0.3-0.1
			c0-0.3-0.4-0.5-0.6-0.6c-0.2-0.1-0.3-0.2-0.4-0.3c-0.1-0.1-0.3-0.3-0.5-0.4c-0.3-0.1-0.3-0.3-0.4-0.4c-0.1,0-0.2,0-0.2-0.1
			c-0.1-0.1-0.3-0.2-0.5-0.1c-0.2,0.1,0.2,0.1,0.2,0.3c0,0.2,0,0.2,0,0.4c0,0.1,0,0.1,0.1,0.3c0.1,0.1,0.3,0.1,0.5,0.3
			c0.2,0.1,0.5,0.1,0.4,0.3c0,0.1,0,0.1-0.3,0.1c-0.3-0.1-0.2,0-0.5-0.1c-0.3,0-0.7,0-1,0c-0.3,0-0.2,0.1-0.1,0.2
			c0.1,0.1,0.2,0.1,0.1,0.3c0,0.2-0.3-0.1-0.4-0.1c-0.1,0-0.4,0.1-0.5,0.1c-0.2,0-0.2-0.1-0.3-0.1c-0.1-0.1-0.3,0.1-0.4,0.2
			c-0.1,0.1-0.3,0.1-0.5,0.2c-0.2,0.1-0.1-0.2-0.1-0.3c0-0.1-0.1,0.1-0.3,0c-0.2,0-0.2-0.1-0.2,0c0,0.1,0.2,0.1,0.2,0.2
			c0,0.1,0.1,0.1,0.2,0.4c0.1,0.2-0.1,0.2-0.3,0.2c-0.2,0-0.1-0.1-0.1-0.3c0-0.3-0.2-0.3-0.4-0.3c-0.2,0-0.2,0-0.3,0
			c-0.1,0-0.3-0.1-0.3,0c0,0.1,0.2,0.1,0.3,0.2c0.1,0.1,0,0.2,0.1,0.3c0.1,0.1,0.2,0.2,0.2,0.4c0,0.1-0.3,0.1-0.4,0
			c-0.1-0.1-0.2,0-0.3,0c-0.1,0-0.2,0-0.4,0c-0.2,0,0,0.1-0.2,0.2s-0.2,0.1-0.4,0.2c-0.2,0-0.1-0.1-0.4,0c-0.3,0.1-0.2,0.1-0.1,0.3
			c0.1,0.2,0.2,0.2,0.2,0.4c0,0.1-0.4,0-0.6-0.2c-0.1-0.2,0-0.4,0-0.6c0-0.3-0.2-0.3-0.3-0.5c-0.1-0.1,0.3,0,0.4,0.2
			c0.1,0.1,0.3,0.1,0.6,0.1c0.3,0.1,0.4-0.1,0.5-0.2c0.1-0.1-0.1-0.2-0.3-0.3c-0.2-0.1-0.1-0.1-0.2-0.2c-0.1-0.1-0.2-0.2-0.3-0.3
			c-0.2,0-0.4-0.1-0.6-0.1c-0.2,0-0.2,0.1-0.3,0c-0.1-0.1,0-0.2-0.1-0.2c-0.1,0-0.3,0-0.4,0.1c-0.1,0.1-0.2,0-0.2,0
			c0.1-0.1,0.3-0.1,0.2-0.3c0-0.1-0.2-0.1-0.4-0.1c-0.2,0-0.1,0-0.2-0.1c-0.1,0-0.1,0.1-0.3,0.1c-0.1,0.1-0.3,0-0.3,0
			c-0.1,0-0.1-0.1-0.3-0.1c-0.2,0-0.4,0-0.5,0.1c-0.1,0.1,0.2,0.1,0.1,0.2c-0.1,0.1-0.1,0-0.2,0c-0.1,0-0.3,0-0.4,0.1
			c-0.1,0.1-0.5,0.1-0.6,0.1c-0.1,0.1-0.4,0-0.4,0.1c-0.1,0,0.2,0.2,0.1,0.2c-0.1,0.1-0.2,0.2-0.4,0.2c-0.1,0,0-0.3,0.1-0.3
			c0,0-0.1,0-0.2,0.1c-0.1,0.1-0.3,0.2-0.4,0.2c-0.1,0.1,0.1,0.3-0.1,0.4c-0.1,0.1-0.1-0.2-0.3-0.1c-0.1,0.1-0.2,0.3-0.3,0.3
			c-0.1,0-0.2,0-0.4,0.1c-0.2,0.1,0.2,0.1,0.2,0.2c0,0.1-0.1,0.1-0.3,0.1c-0.1,0.1-0.2,0.1-0.3,0.2c-0.1,0.1-0.1,0.1-0.3,0.2
			c-0.2,0.1-0.1,0.2-0.2,0.4c-0.1,0.2-0.2,0.1-0.3,0.2c-0.1,0.1-0.3,0.1-0.4,0.2c-0.1,0-0.1-0.1-0.4,0c-0.2,0.1-0.4,0.1-0.6,0.3
			c-0.2,0.2-0.1,0.3,0.1,0.3c0.1,0,0.1,0.1,0.1,0.2c-0.1,0.1-0.3-0.1-0.4-0.1c-0.1,0-0.2,0.1-0.2,0.2c-0.1,0.1,0.1,0.3,0,0.4
			c0,0.1-0.1,0.1-0.2,0c-0.1,0-0.3,0.2-0.4,0.3c-0.2,0.1,0,0.1,0.1,0.4c0,0.2-0.3,0.3-0.3,0.3c0.1,0.1,0.4,0.1,0.6,0.1
			c0.1,0,0.2-0.1,0.3-0.2c0.2-0.1,0.2-0.1,0.3-0.1c0-0.1,0.1-0.2,0.2-0.3c0.1-0.1,0.3-0.1,0.4-0.2c0.1-0.1,0.2-0.1,0.2,0
			c0,0.1-0.1,0.4-0.2,0.7c-0.1,0.3,0,0.3,0,0.5c0,0.3-0.1,0.5,0,0.8c0,0.2,0.3,0,0.5-0.1c0.2-0.1,0.5-0.3,0.6-0.4
			c0.2-0.1,0.3-0.1,0.3-0.3c0-0.2,0.1-0.2,0.3-0.3c0.1-0.1,0.1-0.1,0.1-0.3c0.1-0.2,0.3-0.4,0.4-0.4c0.1,0,0.4-0.2,0.4-0.3
			c0.1-0.1,0-0.2-0.1-0.3c-0.1-0.1,0-0.2,0-0.4c0-0.1,0.2-0.6,0.2-0.6c0,0,0.4-0.2,0.5-0.3c0.1-0.1,0.4-0.1,0.5-0.1
			c0.1-0.1,0-0.1,0.3-0.2c0.3-0.1,0.2-0.1,0.2-0.2c0-0.1,0.1-0.2,0.2-0.2c0.1-0.1,0.1-0.1,0.2-0.2c0.1-0.1,0.1,0,0.2,0
			c0.1,0,0.4,0.1,0.5,0.2c0,0.1-0.2,0.1-0.3,0.2c0,0.1-0.1,0-0.3,0.1c-0.2,0-0.2,0.1-0.3,0.2c-0.1,0.1-0.4,0.3-0.6,0.4
			c-0.2,0.1-0.1,0.2-0.1,0.2c0,0.1,0,0.2,0,0.3c0,0.2-0.2,0.3-0.2,0.4c-0.1,0.1,0,0.3,0.1,0.5c0.1,0.1,0.2,0.1,0.5,0
			c0.2-0.1,0.5-0.2,0.8-0.3c0.2-0.1,0.9,0,1,0c0.1,0,0.1,0.1,0,0.2c0,0.1-0.5,0.2-0.7,0.2c-0.2,0-0.6-0.1-0.7-0.1
			c-0.1,0.1-0.3,0-0.5,0.1c-0.2,0.1-0.2,0.2-0.3,0.3c0,0.1,0.1,0.2,0.1,0.2c0,0,0.2,0,0.3,0c0.1,0,0.1,0,0,0.1
			c0,0.1-0.1,0.3-0.3,0.4c-0.2,0.2-0.2,0-0.3,0c-0.1,0-0.2-0.1-0.2-0.2c-0.1-0.1-0.1,0-0.2,0.1c-0.1,0.1-0.2,0.2-0.3,0.3
			c-0.1,0.1,0,0.2-0.2,0.3c-0.2,0.1-0.1,0.2-0.1,0.4c-0.1,0.1-0.3,0.2-0.4,0.3c-0.1,0.1-0.1,0.2-0.2,0.3c0,0.1-0.3,0.1-0.4,0.1
			c-0.1,0,0.1-0.1,0.1-0.2c0.1-0.1-0.1-0.1-0.3,0c-0.1,0-0.4,0.1-0.5,0.1c-0.1,0-0.6,0-0.7,0.1c-0.1,0-0.2,0.1-0.3,0.2
			c-0.1,0.1,0-0.2,0-0.2c0-0.1-0.2-0.1-0.2-0.1c-0.1,0-0.3,0-0.4,0c-0.1,0-0.2,0.1-0.4,0.1c-0.1,0-0.2-0.1-0.3-0.2
			c-0.1-0.1-0.1-0.4-0.1-0.4c0-0.1-0.1,0.1-0.2,0.1c-0.1,0.1-0.3,0.2-0.4,0.3c0,0.1,0.2,0.4,0.1,0.5c0,0.1-0.1,0.1-0.3,0.1
			c-0.2,0-0.3-0.1-0.5-0.1c-0.1-0.1-0.2,0.2-0.4,0.2c-0.1,0.1-0.4,0.2-0.5,0.2c-0.1,0-0.2,0-0.3,0c-0.1,0-0.1,0.1-0.1,0.3
			c-0.1,0.2-0.1,0.3-0.2,0.3c-0.1,0.1-0.1,0.1-0.2,0.1c-0.1-0.1-0.5,0.1-0.7,0.2c-0.2,0.1-0.5,0.3-0.6,0.3c-0.1,0.1-0.1,0.1-0.2,0.2
			c-0.1,0.2-0.2,0.1-0.5,0.1c-0.3,0-0.6-0.2-0.7-0.2c-0.1,0-0.1,0.3-0.2,0.4c-0.1,0.1-0.1,0-0.2,0c-0.1,0-0.1,0.1-0.2,0
			c-0.1-0.1-0.1-0.1-0.2-0.1c-0.1,0-0.3,0.1-0.3,0.2c0,0.1-0.2,0.2-0.3,0.3c-0.1,0.1-0.1,0.1,0.1,0.2c0.2,0.1,0.1,0,0.2,0.2
			c0.1,0.1,0.1,0,0.2,0c0.1,0,0.1,0,0.1,0.2c0.1,0.1,0.1,0,0.1,0.1c0,0.1-0.1,0.1-0.1,0.3c0,0.2,0,0.3,0,0.4c0,0.1-0.1,0.1-0.1,0.3
			c0.1,0.1,0.1,0.2,0,0.2c0,0.1-0.1,0-0.1-0.1c0-0.1-0.1-0.1-0.1-0.1c-0.1,0.1-0.2,0.1-0.2,0.2c-0.1,0.1,0,0.2,0,0.2
			c0,0.1-0.2,0.1-0.3,0.2c-0.1,0.1-0.1,0.4-0.5,0.3c-0.4-0.1-0.3-0.2-0.4-0.2c-0.1,0-0.3-0.1-0.4-0.2c-0.1-0.2-0.1-0.1-0.3-0.2
			c-0.1,0-0.4-0.1-0.5-0.1c-0.2,0.1-0.2,0.1-0.3,0c-0.1-0.1-0.2,0-0.3,0.1c-0.1,0.2-0.2,0.4-0.2,0.7c0,0.3-0.4,0.9-0.7,1.3
			c-0.3,0.5-0.6,0.8-0.6,1c0,0.3-0.1,0.4-0.2,0.6c-0.1,0.2,0.1,0.1,0.3,0.1c0.2,0,0.3,0,0.4,0.1c0,0,0,0.5,0.1,0.7
			c0.1,0.1,0.2-0.1,0.3-0.2c0.1-0.1,0.2-0.1,0.4-0.1c0.2,0,0.3,0.2,0.6,0.2c0.3,0,0.6,0,0.8-0.1c0.2,0,0.3-0.3,0.4-0.4
			c0.1-0.1,0.6-0.4,0.7-0.4c0.1-0.1,0.2-0.6,0.3-0.8c0.1-0.2,0.3-0.3,0.5-0.4c0.2-0.1,0.6-0.2,0.7-0.2c0.2,0,0.6-0.4,0.6-0.5
			c0-0.1,0.1-0.3,0.4-0.4c0.3-0.1,0.4,0,0.7,0c0.3,0,0.4,0.1,0.5,0c0.1-0.1,0.3-0.1,0.5-0.1c0.2,0,0.5-0.2,0.5-0.2
			c0.1,0,0.2,0.1,0.3,0.1c0.1,0,0-0.2,0.1-0.3c0.1-0.1,0.1,0.1,0.2,0.3c0.1,0.2,0.2,0.3,0.3,0.5c0.1,0.2,0.3,0.3,0.4,0.6
			c0.1,0.3,0,0.3,0.2,0.4c0.2,0,0.3,0.1,0.5,0.3c0.2,0.3,0.5,0.6,0.5,0.9c0,0.3-0.3,0.7-0.4,0.9c-0.1,0.1,0.1,0.2,0.3,0.1
			c0.2-0.1,0.3-0.1,0.4-0.3c0.1-0.2,0.1-0.4,0.1-0.4c0.1,0,0.3-0.2,0.3-0.3c0-0.1-0.2-0.1-0.2-0.2c-0.1-0.1,0.1-0.4,0.3-0.4
			c0.1,0,0.3,0.2,0.4,0.4c0.1,0.1,0.3-0.1,0.3-0.2c0-0.1-0.2-0.4-0.4-0.5c-0.2-0.1-0.3-0.1-0.4-0.2c-0.1-0.2-0.2-0.4-0.3-0.5
			c-0.1-0.1-0.6-0.2-0.7-0.3c-0.1-0.1,0-0.7,0-0.8c0-0.1-0.2-0.1-0.4-0.2c-0.2-0.1-0.1-0.2,0-0.2c0.1,0,0.1-0.3,0.1-0.4
			c-0.1-0.1,0.1-0.1,0.3,0c0.2,0.1,0.1,0.1,0,0.3c0,0.1,0.1,0.3,0.2,0.3c0.1,0,0.2-0.2,0.2-0.3c0-0.1,0.1,0,0.2,0.2
			c0.2,0.2,0.1,0.2,0.2,0.4c0.1,0.2-0.1,0.3-0.2,0.4c-0.1,0.2,0,0.1,0.3,0.1c0.2,0.1,0,0.1,0.3,0.2c0.3,0.1,0.4,0.2,0.5,0.2
			c0.1,0,0.4,0.2,0.6,0.3c0.2,0.2,0.1,0.3,0,0.5c-0.1,0.2,0,0.4,0,0.8c0,0.3,0.1,0.1,0.3,0.4c0.1,0.2,0.2,0.3,0.2,0.5
			c0.1,0.2,0.1,0.2,0.2,0.2c0.1,0,0.4,0,0.4,0.1c0,0.1-0.3,0-0.5,0.1c-0.2,0.1-0.2,0.1-0.2,0.3c0,0.2,0.1,0.1,0.2,0.4
			c0.1,0.3,0,0.3,0.1,0.3c0.1,0,0.1-0.1,0.2,0.1c0.1,0.2,0.1,0.1,0.2,0c0.2-0.1,0.2,0,0.3-0.1c0-0.1,0-0.2,0.1-0.1
			c0.1,0.1,0.2-0.1,0.2-0.3c0-0.2,0-0.2-0.1-0.2c-0.1,0-0.2,0.3-0.3,0.2c-0.2-0.1,0.3-0.2,0.4-0.3c0.1-0.1,0.1-0.1,0.2-0.1
			c0.1,0,0.3,0,0.2-0.3c-0.1-0.2-0.2-0.3-0.6-0.7c-0.4-0.4,0.1-0.5,0.4-0.6c0.4-0.2,1.1-0.2,1.2-0.2c0.1,0,0.1,0.2-0.1,0.3
			c-0.1,0.1-0.2,0.3-0.1,0.4c0,0.1,0.2,0.1,0.3,0.1c0.1,0,0.2,0,0.3,0.3c0.1,0.3-0.2,0.4-0.3,0.4c-0.1,0-0.1,0.3-0.2,0.4
			c0,0.1,0.4,0,0.5,0c0.1,0,0.1,0.2,0.2,0.4c0.1,0.2,0.1,0.2,0.2,0.4c0.1,0.2-0.2,0.1,0.1,0.2c0.2,0.1,0.3,0,0.5,0
			c0.2,0,0.8,0.2,1,0.1c0.2-0.1,0.3-0.3,0.5-0.3c0.2,0,0.4,0.3,0.6,0.4c0.2,0.1,0.6-0.1,0.7-0.2c0.1-0.1,0.2-0.1,0.4-0.1
			c0.3,0,0.4,0,0.4-0.1c0-0.1,0.2-0.2,0.2,0c0,0.2-0.1,0.2-0.2,0.3c-0.1,0.1,0,0.3,0,0.5c0.1,0.2,0,0.5,0,0.6c0,0.2-0.1,0.2-0.1,0.4
			c0,0.1-0.1,0.1-0.2,0.2c-0.1,0.2-0.1,0.4-0.1,0.6c0.1,0.2-0.2,0.4-0.4,0.7c-0.2,0.2-0.3,0.4-0.4,0.4c-0.1,0-0.5-0.1-0.6-0.1
			c-0.1-0.1-0.4-0.4-0.6-0.4c-0.2,0-1.1,0.3-1.4,0.4c-0.3,0.1-0.9-0.1-1.1-0.3c-0.2-0.1-0.5-0.1-0.7,0c-0.2,0-0.3-0.2-0.6-0.4
			c-0.3-0.2-0.5,0-0.7-0.1c-0.3,0-0.2-0.3-0.3-0.4c-0.1-0.1-0.8-0.1-1.1-0.1c-0.3,0-0.3,0-0.3,0.2c0,0.2-0.1,0.7-0.2,0.9
			c-0.1,0.2-0.6,0.3-0.7,0.3c-0.1,0-0.5-0.2-0.7-0.2c-0.1,0-0.4,0-0.4-0.1c-0.1-0.1-0.2-0.1-0.4-0.2c-0.2-0.1-0.2-0.4-0.3-0.6
			c0-0.2-0.3-0.4-0.7-0.6c-0.4-0.2-0.7,0-0.9,0.1c-0.1,0.1-0.5-0.1-0.8-0.5c-0.3-0.4,0.2-0.5,0.2-0.7c0-0.1,0.2-0.3,0.4-0.4
			c0.2-0.2,0-0.3-0.2-0.5c-0.1-0.2,0.1-0.4,0.3-0.6c0.2-0.2-0.2-0.2-0.3-0.2c-0.1,0,0.1-0.2,0-0.3c-0.1-0.1-0.3,0-0.3,0.1
			c0,0.1-0.3,0.2-0.4,0.2c-0.2,0.1-0.3,0.2-0.5,0.1c-0.1-0.1-0.1-0.2-0.4-0.2c-0.3-0.1-0.6,0.1-0.7,0.2c-0.2,0.1-0.2,0-0.3-0.1
			c-0.1-0.1-0.2-0.2-0.6-0.2c-0.4,0-0.8,0-1.2,0.1c-0.4,0.1-1.1,0.3-1.4,0.4c-0.3,0.1-0.7,0-1.1-0.1c-0.4-0.1-0.5-0.3-0.6-0.5
			c-0.1-0.2-0.1-0.1-0.2,0.1c-0.1,0.2-0.2,0.2-0.3,0.4c-0.2,0.2-0.2,0.3-0.4,0.4c-0.2,0.1-0.3,0.2-0.4,0.3c-0.1,0.1-0.4,0.2-0.6,0.3
			c-0.2,0.1-0.1,0.4-0.3,0.6c-0.2,0.2-0.3,0.4-0.4,0.7c-0.1,0.3-0.1,0.3,0,0.5c0.1,0.2-0.1,0.2-0.1,0.1c-0.1,0-0.2,0-0.3,0.2
			c-0.2,0.2-0.3,0.2-0.5,0.2c-0.2,0-0.1,0.1-0.3,0.3c-0.2,0.1-0.4,0-0.6,0.2c0,0-0.4,0.3-0.6,0.6c-0.2,0.3-0.6,0.8-0.8,1.1
			c-0.2,0.3-0.4,0.6-0.5,0.7c-0.1,0.1-0.3,0.5-0.5,0.8c-0.2,0.3-0.3,0.3-0.4,0.5c0,0.2,0.2,0.7,0.2,0.8c0,0.1-0.1,0.5-0.1,0.7
			c0,0.2-0.1,0.4-0.2,0.6c-0.1,0.2-0.2,0.4-0.1,0.6c0,0.2-0.1,0.4-0.2,0.4c-0.1,0.1-0.1,0.4-0.2,0.6c-0.1,0.2-0.3,0-0.3,0.2
			c-0.1,0.1,0,0.4,0,0.6c0,0.2-0.1,0.6-0.1,0.7c0,0.1,0.1,0.4,0.1,0.7c0,0.3,0.2,0.4,0.3,0.6c0.1,0.1,0.1,0.3,0.1,0.5
			c0,0.2,0.1,0.4,0.1,0.6c0,0.2,0.3,0.2,0.4,0.5c0.1,0.2,0,0.6,0,0.8c0,0.2,0.1,0.6,0.1,0.9c0,0.3,0.4,0.4,0.6,0.8
			c0.3,0.4,0.5,0.7,0.8,1.2c0.3,0.5,0.6,0.5,0.9,0.6c0.3,0.1,0.3-0.2,0.5-0.3c0.2-0.1,0.1,0.1,0.4,0.2c0.2,0.1,0.4,0.1,0.5,0
			c0.1,0,0.2-0.1,0.3-0.1c0.2,0,0.2,0.2,0.3,0.4c0.1,0.2,0.3,0.1,0.6,0.2c0.4,0.1,0.5,0,0.7-0.1c0.2-0.1,0.9-0.4,1-0.4
			c0.1,0,0.3-0.1,0.5-0.1c0.2,0,0.1,0.1,0.2,0.3c0,0.2,0.2,0,0.4,0c0.2,0,0.2,0,0.4,0.2c0.2,0.2,0.3,0.6,0.4,0.9
			c0.1,0.3,0.2,0.4,0.4,0.5c0.2,0.1,0.5-0.1,0.8-0.1c0.3,0,0.5-0.1,0.7,0.1c0.2,0.1,0.2,0.6,0.3,0.7c0,0.1,0.4,0,0.4,0.2
			c0.1,0.1-0.1,0.4-0.2,0.6c-0.1,0.2,0,0.5,0,0.7c0,0.2,0,0.5,0,0.7c0,0.2,0,0.3-0.2,0.4c-0.2,0.1-0.2,0.2-0.1,0.3
			c0.1,0.2,0.2,0.3,0.3,0.5c0.1,0.2-0.1,0.2-0.1,0.3c0.1,0.1,0.1,0.1,0.3,0.1c0.2,0,0.3,0.2,0.2,0.4c-0.1,0.2,0.2,0.3,0.3,0.5
			c0.1,0.2,0.3,0.2,0.5,0.2c0.3,0.1,0.5,0.3,0.6,0.5c0.1,0.3,0,0.3,0.1,0.5c0.1,0.2,0,0.4,0,0.5c0,0.1,0.2,0.2,0.3,0.4
			c0.1,0.2,0.1,0.2,0.1,0.4c0,0.2,0.1,0.1,0.2,0.2c0.1,0.1,0.2,0.4,0.1,0.5c-0.1,0.1-0.1,0.4,0,0.5c0.1,0.1,0.2,0.1,0.3,0.3
			c0.1,0.2,0.3,1,0.4,1.1c0.1,0.1,0,0.4-0.1,0.5c-0.1,0.1-0.4,0.3-0.5,0.6c-0.1,0.2,0,0.4,0.1,0.6c0.1,0.2-0.1,0.2-0.2,0.4
			c-0.1,0.2-0.1,0.2-0.1,0.5c0,0.2,0,0.3,0.1,0.8c0.2,0.5,0.4,0.4,0.6,0.6c0.2,0.2,0.1,0.3,0.2,0.5c0.1,0.1,0.5,0.5,0.9,1
			c0.4,0.5,0.3,0.4,0.2,0.6c0,0.1,0,0.2,0.2,0.5c0.2,0.3,0.5,0.6,0.5,1c0,0.4,0.1,0.3,0.2,0.6c0.1,0.3,0.7,0.6,1,0.9
			c0.3,0.3,0.5,0.4,0.8,1c0.3,0.5,0.6,0.6,0.7,0.7c0.1,0.1,0.1,0.2-0.1,0.2c-0.1,0-0.2,0.1-0.1,0.2c0.1,0.1,0.1,0.2,0.2,0.4
			c0.1,0.2,0.2,0.1,0.4,0.2c0.2,0.1,0.4,0.2,0.6,0.2c0.2,0,0.7-0.1,0.9-0.1c0.3,0,0.4,0.2,0.8,0.2c0.4,0,0.3,0,0.8,0
			c0.5,0.1,1.5-0.2,1.7-0.4c0.2-0.2,0.6-0.5,0.9-0.7c0.4-0.2,0.9-0.5,1.1-0.6c0.2-0.1,0.1-0.2,0.1-0.4c0-0.2,0.2-0.3,0.3-0.5
			c0.1-0.2,0.2-0.3,0.1-0.6c-0.1-0.3,0.2-0.2,0.4-0.3c0.2-0.2,0.9-0.3,1.1-0.4c0.2-0.1,0.2-0.1,0.1-0.3c-0.1-0.2,0-0.6,0.1-0.9
			c0-0.3,0-0.3-0.1-0.3c-0.1,0-0.1,0-0.3-0.3c-0.1-0.3-0.2-0.4-0.2-0.6c0-0.2,0.7-0.3,0.9-0.4c0.2-0.1,0.2-0.2,0.5-0.4
			c0.2-0.2,0.4-0.4,0.5-0.4c0.1-0.1,0.3-0.1,0.6-0.3c0.3-0.1,0.4-0.2,0.5-0.3c0.1-0.1,0.1,0.1,0.3,0c0.2-0.1,0.5-0.3,0.8-0.5
			c0.3-0.2,0.2-0.5,0-0.7c-0.2-0.2-0.2-0.3-0.2-0.6c0-0.3,0-0.2-0.1-0.3c-0.1,0-0.1-0.1,0-0.3c0.1-0.2,0-0.3,0-0.5
			c-0.1-0.1-0.1-0.3-0.1-0.5c0-0.2-0.2-0.4-0.3-0.5c-0.1-0.1-0.2-0.3-0.3-0.5c0-0.2-0.3-0.1-0.4-0.3c-0.1-0.2,0-0.7,0.1-0.9
			c0.1-0.2-0.1-0.4-0.2-0.5c-0.1-0.1-0.1-0.5,0.1-0.8c0.2-0.3,0.4-0.4,0.6-0.6c0.2-0.1,0.5-0.6,0.6-0.7c0.2-0.1,0.3-0.3,0.3-0.6
			c0-0.3,0.2-0.2,0.3-0.3c0.1-0.1,0.2-0.2,0.2-0.4c0-0.2,0.1-0.2,0.3-0.3c0.2-0.1,0.5-0.4,0.6-0.6c0.1-0.2,0.5-0.4,0.9-0.7
			c0.4-0.2,0.5-0.5,0.5-0.6c0-0.1,0.2-0.4,0.5-0.4c0.4-0.1,0.7-0.4,0.9-0.6c0.2-0.2,0.4-0.7,0.6-1.1c0.2-0.4,0.6-0.8,0.5-1.1
			c-0.1-0.3,0.2-0.6,0.4-0.8c0.3-0.2,0.1-0.4,0.2-0.7c0.1-0.3,0.3-0.2,0.4-0.4c0.1-0.2,0-0.5,0-0.6c0-0.1,0.4-0.3,0.4-0.3
			c0.1-0.1,0-0.2-0.2-0.3c-0.1-0.1-0.1-0.3-0.2-0.5c-0.1-0.2-0.3-0.2-0.4-0.1c-0.2,0.1-0.3,0.2-0.5,0.3c-0.2,0.1-0.3,0.1-0.4,0.2
			c-0.1,0.1-0.5,0.1-1.1,0.2c-0.6,0.1-1.5,0.1-2,0.2c-0.5,0.1-0.6-0.1-0.8-0.3c-0.2-0.2-0.1-0.4-0.1-0.8c0-0.3-0.1-0.4-0.3-0.4
			c-0.2,0-0.3-0.2-0.5-0.5c-0.2-0.4-0.4-0.5-0.7-0.6c-0.2-0.1-0.8-0.1-1-0.2c-0.2-0.1-0.1-0.2-0.2-0.4c-0.1-0.2-0.2-0.7-0.3-1
			c-0.1-0.3-0.4-0.6-0.7-0.7c-0.3-0.1-0.3-0.5-0.3-0.8c0-0.3,0.1-0.6,0-0.7c0-0.1-0.1-0.3,0-0.4c0.1-0.1-0.1-0.2-0.3-0.3
			c-0.1,0-0.1-0.4-0.1-0.6c-0.1-0.2-0.3-0.3-0.4-0.4c-0.2-0.1-0.4-0.1-0.5-0.3c-0.1-0.1,0.2-0.3,0.2-0.3c0.1,0-0.3-0.2-0.4-0.4
			c-0.1-0.2-0.2-0.2-0.3-0.3c-0.1-0.1-0.1-0.1-0.1-0.3c0-0.2,0-0.2-0.1-0.4c-0.1-0.2,0-0.3-0.1-0.5c-0.1-0.2-0.2-0.3-0.2-0.4
			c-0.1-0.1-0.1-0.3-0.2-0.5c-0.1-0.3-0.2-0.3-0.3-0.4c-0.1-0.1-0.3-0.5-0.4-0.6c-0.1-0.2-0.1-0.3,0.1-0.1c0.1,0.1,0.2,0.1,0.4,0.2
			c0.2,0.1,0.1,0.2,0.2,0.5c0.1,0.3,0.3,0.2,0.4,0.1c0.1-0.1,0-0.6,0.1-0.7c0.1-0.2,0.3-0.2,0.2,0c0,0.2-0.2,0.3-0.1,0.6
			c0.1,0.3,0.4,0.4,0.6,0.8c0.3,0.3,0.7,0.6,0.9,1.1c0.2,0.5,0,0.7,0.1,0.9c0.1,0.2,0.4,0.1,0.7,0.2c0.3,0.1,0.1,0.2,0.2,0.4
			c0.1,0.2,0.2,0.2,0.3,0.4c0.1,0.2-0.2,0.7-0.1,1.1c0.1,0.4,0.4,0.6,0.7,0.9c0.3,0.2,0.8,0.9,0.9,1.1c0.1,0.2,0.3,0.5,0.4,0.8
			c0.1,0.3,0.6,0.8,0.6,1c0.1,0.2-0.2,0.1-0.2,0.1c-0.1,0-0.2,0.4-0.1,0.6c0.1,0.2,0.3,0.3,0.5,0.6c0.2,0.3,0,0.6,0.2,0.8
			c0.2,0.2,0.4,0.1,0.7,0c0.3-0.1,0.5-0.3,0.7-0.4c0.2-0.1,0.5,0,0.8-0.1c0.3-0.1,0.6-0.3,0.9-0.4c0.3,0,0.4-0.2,0.6-0.3
			c0.2-0.2,0.5-0.3,0.9-0.5c0.3-0.2,0.7-0.2,0.9-0.3c0.2-0.1,0.3-0.2,0.4-0.5c0.1-0.3,0.2-0.2,0.4-0.3c0.2-0.1,0.2-0.1,0.3-0.1
			c0.1,0,0.2-0.1,0.4-0.3c0.2-0.2,0.5-0.1,0.7-0.2c0.2-0.1,0.1-0.2,0.5-0.4c0.4-0.1,0.2-0.1,0.2-0.3c0-0.2,0-0.3,0.1-0.5
			c0.2-0.2,0.4,0.1,0.6,0.1c0.2,0,0.1-0.1,0.1-0.4c0-0.3-0.2-0.6-0.3-0.8c-0.1-0.2-0.1-0.3,0.1-0.3c0.1-0.1,0.2,0.1,0.4,0.1
			c0.1,0,0.1-0.4,0-0.6c-0.1-0.3,0.2-0.4,0.3-0.6c0.1-0.3,0-0.3-0.2-0.5c-0.2-0.3-0.4-0.5-0.5-0.6c-0.1,0-1.1-0.2-1.2-0.3
			c-0.1-0.1-0.2-0.6-0.2-1.1c-0.1-0.4-0.4-0.3-0.5-0.2c-0.1,0.1-0.2,0.7-0.5,1.1c-0.3,0.4-0.6,0.1-0.9,0.2c-0.2,0.1-0.7,0.2-0.8,0
			c-0.2-0.2,0.1-0.3,0.1-0.5c0-0.3-0.2-0.3-0.4-0.2c-0.2,0.1-0.3,0.4-0.4,0.4c-0.1,0-0.1-0.4,0.1-0.5c0.2-0.1,0.1-0.2,0-0.4
			c-0.1-0.2-0.2,0-0.4-0.1c-0.2-0.1,0.1-0.1,0-0.3c-0.1-0.2-0.2-0.2-0.4-0.2c-0.2,0-0.1-0.1-0.3-0.4c-0.1-0.3-0.1-0.2-0.4-0.4
			c-0.3-0.2-0.3-0.3-0.4-0.6c-0.1-0.2-0.1-0.2,0-0.2c0.1,0,0.3-0.1,0.3-0.2c0-0.1,0.1-0.4,0.3-0.3c0.2,0.1,0,0.3,0.1,0.4
			c0.1,0.1,0.4-0.1,0.6-0.1c0.2,0.1,0.2,0.4,0.3,0.7c0.1,0.3,0.2,0.6,0.4,0.8c0.1,0.1,0.3,0.1,0.6,0.2c0.2,0.1,0.3,0.3,0.6,0.4
			c0.3,0.1,0.6,0,0.9,0c0.3,0,0.4-0.4,0.6-0.4c0.2,0,0.4,0.2,0.6,0.5c0.1,0.3,0.5,0.3,0.7,0.4c0.2,0.1,0.3,0,0.6,0.1
			c0.3,0.1,0.8,0.1,1.2,0.1c0.4,0,0.3-0.2,0.5-0.3c0.2-0.1,0.5-0.1,0.8-0.1c0.3,0,0.3,0,0.6-0.1c0.3-0.1,0.7-0.2,0.8-0.2
			c0.1,0,0.2,0.3,0.3,0.4c0.1,0.1,0.2,0.1,0.2,0.1c0,0.1,0.3,0.3,0.5,0.4c0.2,0.1,0.3,0.1,0.5,0.2c0.2,0.1,0.1,0.1,0.3,0.2
			c0.2,0.1,0.4-0.2,0.5-0.1c0.1,0-0.1,0.2-0.2,0.4c-0.2,0.2-0.1,0.3,0,0.4c0.1,0.1,0.3,0.1,0.4,0.2c0.1,0.1,0.1,0.2,0.3,0.3
			c0.2,0.1,0.2-0.2,0.3-0.3c0.1-0.2,0.2-0.1,0.3-0.2c0.1-0.2-0.1-0.4-0.2-0.5c-0.1-0.1,0.1-0.1,0.2-0.1c0.1,0,0.1,0.3,0.1,0.5
			c0.1,0.1-0.1,0.3-0.1,0.4c0,0.1,0.1,0.3,0.2,0.5c0.1,0.2,0.2,0.8,0.3,1.3c0.1,0.5,0.3,0.7,0.4,0.8c0.1,0.2,0.1,0.4,0.2,0.6
			c0.1,0.2,0.3,0.3,0.4,0.6c0.1,0.3,0.4,0.5,0.5,0.8c0.1,0.3,0.2,0.5,0.3,0.7c0.1,0.2,0.3,0.7,0.6,0.9c0.2,0.3,0.5,0.7,0.5,0.8
			c0,0.2,0.3,0.4,0.4,0.7c0.1,0.3,0.3,0.1,0.5,0c0.1-0.1,0-0.3,0.1-0.5c0.1-0.2,0.1-0.1,0.2-0.2c0.1-0.1,0.2-0.2,0.2-0.4
			c-0.1-0.1-0.1-0.4,0.1-0.5c0.1-0.2,0.2-0.1,0.2-0.3c0-0.2-0.1-0.3-0.2-0.5c-0.1-0.2,0.2-0.6,0.1-0.7c0-0.1,0-0.4,0-0.6
			c0-0.2,0-0.3-0.1-0.5c-0.1-0.1-0.1-0.1-0.1-0.4c0-0.3-0.1-0.4-0.1-0.6c0-0.1,0.2-0.3,0.3-0.6c0.1-0.2,0.1-0.5,0.1-0.6
			c0-0.1,0.2-0.2,0.3-0.2c0.1-0.1,0.1-0.2,0.1-0.4c0-0.2,0.2-0.5,0.3-0.6c0-0.2,0.1-0.3,0.1-0.5c0-0.2,0.2-0.3,0.1-0.3
			c-0.1-0.1-0.1-0.2,0-0.2c0.1,0,0.2,0.1,0.2-0.1c0-0.2,0.1-0.2,0.1-0.4c0-0.2,0-0.4,0-0.6c0-0.3,0.2-0.3,0.3-0.3
			c0.1,0,0-0.1,0.1-0.3c0.1-0.2,0.2-0.1,0.2-0.2c0-0.1,0.3-0.3,0.4-0.4c0.1-0.1,0.1,0.1,0.2,0.3c0.1,0.2,0.1-0.1,0.3,0
			c0.2,0,0.3,0.5,0.4,0.6c0.1,0.1,0.1-0.1,0.2-0.1c0.1,0.1,0.1,0.3,0.2,0.4c0.1,0.1,0.2,0.2,0.3,0.4c0.1,0.2,0.1,0.1,0.2,0.1
			c0.1,0,0.2,0.3,0.3,0.5c0.1,0.2,0.1,0.9,0.2,1.2c0.1,0.3,0.2,0.4,0.4,0.3c0.2-0.1,0.1-0.4,0.1-0.5c0-0.2,0.2-0.3,0.1-0.4
			c0-0.1,0.1-0.3,0.2-0.2c0.1,0.2,0.3,0.9,0.4,1.1c0.1,0.2,0.4,0.4,0.4,0.7c0,0.3,0.1,0.7,0.2,0.8c0.2,0.2,0.2,0.4,0.3,0.8
			c0.1,0.4,0,0.7-0.1,0.8c-0.1,0.1-0.2,0.3-0.1,0.5c0.1,0.2,0.4,0.5,0.5,0.8c0.1,0.3,0.3,0.3,0.4,0.6c0.1,0.3,0.1,0.8,0.2,1
			c0.1,0.2,0.4,1.1,0.7,1.4C424,276.4,423.9,275.9,423.9,275.8z M384.8,257.4c-0.2,0.1-0.5,0.1-0.7,0.1c-0.2,0-0.4,0-0.4,0
			c-0.1,0,0-0.1,0.3-0.2c0.2,0,0.3,0,0.4-0.2c0.2-0.2,0.3-0.1,0.4-0.1c0.1-0.1,0.2-0.1,0.1,0c0,0.1-0.1,0.1,0,0.2
			C385,257.3,385.1,257.3,384.8,257.4z M391.4,256.7c-0.1,0.2-0.4,0.4-0.6,0.3c-0.2,0-0.2-0.1-0.4,0c-0.2,0.1-0.4,0.1-0.7,0.1
			c-0.3-0.1-0.5-0.2-0.8-0.3c-0.3-0.1-0.9-0.2-1.1-0.2c-0.2,0-0.7-0.1-0.9,0c-0.2,0-0.3,0-0.4,0.2c-0.1,0.2-0.4,0.2-0.7,0.2
			c-0.3,0-0.6,0.1-0.8,0.1c-0.1,0-0.2,0-0.2-0.1c0-0.2,0-0.2-0.1-0.2c-0.1,0-0.1-0.1-0.1-0.1c0-0.2,0.1-0.4,0.1-0.5
			c0-0.1,0.3-0.5,0.3-0.7c0.1-0.2,0.4-0.5,0.5-0.6c0.1-0.1,0.3-0.2,0.4-0.3c0.1-0.1,0.2-0.2,0.3-0.3c0.1-0.2,0.3-0.3,0.4-0.3
			c0.1-0.1,0.5,0.1,0.5,0.2c0.1,0.1,0.1,0.2,0,0.3c-0.1,0.1-0.3,0.2-0.1,0.3c0.1,0.1,0.3,0,0.4,0c0.1,0,0.1,0.2,0.1,0.3
			c0,0.1,0,0.3,0.2,0.2c0.2-0.1,0.3-0.2,0.5-0.2c0.2,0,0.6,0.1,0.6-0.1c0-0.1,0-0.3-0.1-0.3c-0.1,0-0.4,0.1-0.4,0
			c-0.1-0.1-0.1-0.1-0.3-0.1c-0.2,0-0.2-0.3,0-0.4c0.1-0.1,0.4,0.1,0.6,0c0.2-0.1,0.3-0.2,0.4-0.2c0.1,0,0.3,0,0.4-0.2
			c0.2-0.1,0.4-0.2,0.5-0.1c0.1,0.1,0.2,0.2,0.1,0.2c-0.1,0-0.3,0.1-0.4,0.2c-0.1,0.1-0.2,0.1-0.1,0.2c0.1,0.1,0.1,0.2,0.1,0.2
			c-0.1,0,0,0.2,0,0.2s-0.1,0.1-0.2,0c-0.1,0-0.2-0.1-0.2,0c-0.1,0.1-0.2,0.2,0,0.3c0.2,0,0.6,0.1,0.8,0.3c0.2,0.2,0.3,0.4,0.5,0.6
			c0.1,0.2,0.5,0.1,0.7,0.4C391.4,256.1,391.5,256.5,391.4,256.7z M398.5,259.5c0,0.1-0.2,0.2-0.3,0.1c-0.1-0.1-0.3-0.3-0.4-0.2
			c-0.1,0-0.3,0.2-0.5,0.3c-0.1,0.2-0.2,0.2-0.3,0.1c-0.1-0.1-0.5-0.4-0.7-0.5c-0.3-0.1-0.4,0.1-0.5-0.1c-0.1-0.2-0.2-0.5-0.2-0.7
			c-0.1-0.2,0-0.3,0.1-0.4c0.1,0,0.2,0.1,0.3,0c0.1-0.1,0-0.2,0.1-0.2c0.1-0.1,0.2-0.1,0.2-0.2c0-0.1-0.2-0.2-0.1-0.3
			c0.1-0.1,0.2,0,0.2-0.2c-0.1-0.1-0.1-0.3-0.3-0.3c-0.2,0-0.1,0-0.3-0.1c-0.1-0.1-0.1-0.2-0.2-0.2c-0.2,0-0.2,0.1-0.3,0
			c-0.1-0.1,0-0.2-0.2-0.4c-0.2-0.1-0.2-0.1-0.3-0.3c0-0.2-0.1-0.4,0-0.4c0.1-0.1,0.1-0.2-0.1-0.2c-0.1,0-0.2,0.1-0.2,0.1
			c0,0-0.1,0-0.1,0c0-0.1,0-0.1,0-0.3c0-0.1-0.2-0.1-0.3-0.3c-0.1-0.2,0-0.4,0.1-0.6c0.1-0.1,0.4-0.4,0.6-0.6
			c0.1-0.2,0.2-0.3,0.5-0.4c0.2-0.1,0.5-0.3,0.6-0.3c0.1,0,0.4,0.1,0.5,0.1c0.1,0,0.3,0.1,0.4,0.3c0,0.2-0.2,0.3-0.1,0.5
			c0.1,0.2,0.1,0.2,0.2,0.2c0.1,0.1,0.1,0.2,0,0.2c-0.1,0-0.1,0-0.2-0.1c-0.1-0.1-0.2-0.2-0.2-0.1c0,0,0,0.2-0.1,0.2
			c-0.1,0-0.3,0-0.3,0c0.1,0.1,0.2,0.1,0.2,0.2c0,0.1-0.1,0.1-0.2,0.2c-0.1,0-0.3,0.2,0,0.3c0.3,0.2,0.4,0.2,0.5,0.4
			c0.2,0.3,0.1,0.4,0.3,0.3c0.2,0,0.5-0.1,0.4,0c-0.1,0.1-0.3,0.1-0.3,0.2c0,0.1-0.1,0.3,0.1,0.6c0.1,0.2,0.2,0.2,0.3,0.2
			c0.1,0,0.1-0.1,0.1-0.2c-0.1-0.1-0.2-0.4-0.1-0.4c0.2,0,0.1,0.2,0.2,0.3c0,0.1,0.3,0.3,0.3,0.4c0,0.1,0,0.2-0.2,0.1
			c-0.2,0-0.4-0.1-0.4,0.1c0,0.2,0,0.3,0.1,0.4c0.1,0.1,0.4,0.1,0.3,0.2c-0.1,0.1-0.2,0-0.2,0.2c0.1,0.2,0.2,0.1,0.4,0.3
			c0.2,0.2,0.1,0.3,0.2,0.6c0.1,0.3,0.2,0.4,0.2,0.5C398.3,259.2,398.5,259.4,398.5,259.5z"/>
		<path class="st8" d="M384.9,257.2c-0.1-0.1-0.1-0.1,0-0.2c0-0.1,0,0-0.1,0c-0.1,0.1-0.2,0-0.4,0.1c-0.2,0.2-0.2,0.2-0.4,0.2
			c-0.2,0-0.3,0.2-0.3,0.2c0,0,0.1,0,0.4,0c0.2,0,0.5-0.1,0.7-0.1C385.1,257.3,385,257.3,384.9,257.2z"/>
	</g>
	<path class="st7" d="M374.7,194.4L374.7,194.4l-4.8,0.1c-0.2-0.9-0.4-1.8-0.7-2.6l4.2-2.4l0-0.1l0,0l-1.8-3.1l-1.8-3.1l0,0l0-0.1
		l-4.2,2.4c-0.6-0.7-1.2-1.3-1.9-1.9l2.4-4.2l-0.1,0l0,0l-3.1-1.8l-3.1-1.8l0,0l-0.1,0l-2.4,4.2c-0.8-0.3-1.7-0.6-2.6-0.7l0-4.9
		h-0.1l0,0h-3.5l-3.5,0.1v-0.1l0,0v4.9c-1.1,0.2-1.8,0.4-2.7,0.7l-2.4-4.2l-6.3,3.6l2.4,4.2c-0.7,0.6-1.4,1.2-2,1.9l-4.2-2.4
		l-3.7,6.3l4.2,2.4c-0.3,0.9-0.5,1.8-0.7,2.7l-4.8,0l0,7.3l4.8,0c0.2,0.9,0.4,1.8,0.7,2.7l-4.2,2.4l3.6,6.3l4.2-2.4
		c0.6,0.7,1.2,1.4,1.9,2l-2.4,4.2l6.3,3.6l2.4-4.2c0.9,0.3,1.8,0.5,2.7,0.7l0,4.8l7.3,0l0-4.8c0.9-0.2,1.8-0.4,2.7-0.7l2.4,4.2
		l6.3-3.6l-2.4-4.2c0.7-0.6,1.3-1.3,2-1.9l4.2,2.4l3.6-6.3l-4.2-2.4c0.3-0.8,0.5-1.7,0.7-2.6l4.8,0v0.2h0l0-3.8L374.7,194.4
		L374.7,194.4z M359.3,190.9c1.7,1.9,2.7,4.4,2.7,7.2c0,6.1-4.9,11-11,11c-6.1,0-11-4.9-11-11c0-6.1,4.9-11,11-11
		c0.8,0,1.6,0.1,2.4,0.3C355.8,187.8,357.8,189.1,359.3,190.9z"/>
	<path class="st6" d="M363.2,186l-3.9,4.9c1.7,1.9,2.7,4.4,2.7,7.2c0,6.1-4.9,11-11,11c-6.1,0-11-4.9-11-11c0-6.1,4.9-11,11-11
		c0.8,0,1.6,0.1,2.4,0.3l2.6-5.7c-1.6-0.5-3.3-0.7-5-0.7c-9.5,0-17.2,7.7-17.2,17.2c0,9.5,7.7,17.2,17.2,17.2
		c9.5,0,17.2-7.7,17.2-17.2C368.2,193.4,366.3,189.1,363.2,186z"/>
	<path class="st6" d="M122.2,273.1v-0.2l-4.9,0c-0.2-0.9-0.5-1.8-0.7-2.6l4.2-2.4l-0.1-0.1l0,0l-1.8-3.1l-1.8-3.1l0,0l0-0.1
		l-4.2,2.4c-0.6-0.7-1.2-1.3-1.9-1.9l2.4-4.2l-0.1,0l0,0l-3.1-1.8l-3.1-1.8l0,0l-0.1,0l-2.4,4.2c-0.8-0.3-1.7-0.4-2.6-0.6l0-4.7h0.1
		l0,0h-3.8l-3.8-0.3v0.3l0,0v4.6c-0.5,0.2-1.7,0.4-2.5,0.7l-2.4-4.2l-6.3,3.6l2.4,4.2c-0.7,0.6-1.3,1.2-2,1.9l-4.2-2.4l-3.7,6.3
		l4.2,2.4c-0.3,0.9-0.5,1.8-0.7,2.7l-4.8,0l0,7.3l4.8,0c0.2,0.9,0.4,1.8,0.7,2.7l-4.2,2.4l3.6,6.3l4.2-2.4c0.6,0.7,1.2,1.3,1.9,2
		l-2.4,4.2l6.3,3.6l2.4-4.2c0.9,0.3,1.8,0.5,2.7,0.7l0,4.8l7.3,0l0-4.8c0.9-0.2,1.8-0.4,2.7-0.7l2.4,4.2l6.3-3.6l-2.4-4.2
		c0.7-0.6,1.3-1.3,2-1.9l4.2,2.4l3.6-6.3l-4.2-2.4c0.3-0.8,0.6-1.7,0.8-2.6l5,0v-0.1H122l0-3.5l0-3.5H122.2z M106.6,269.3
		c1.7,1.9,2.7,4.4,2.7,7.2c0,6.1-4.9,11-11,11c-6.1,0-11-4.9-11-11c0-6.1,4.9-11,11-11c0.8,0,1.6,0.1,2.4,0.3
		C103.1,266.2,105.1,267.5,106.6,269.3z"/>
	<path class="st7" d="M110.5,264.4l-3.9,4.9c1.7,1.9,2.7,4.4,2.7,7.2c0,6.1-4.9,11-11,11c-6.1,0-11-4.9-11-11c0-6.1,4.9-11,11-11
		c0.8,0,1.6,0.1,2.4,0.3l2.6-5.7c-1.6-0.5-3.3-0.7-5-0.7c-9.5,0-17.2,7.7-17.2,17.2c0,9.5,7.7,17.2,17.2,17.2
		c9.5,0,17.2-7.7,17.2-17.2C115.5,271.8,113.6,267.5,110.5,264.4z"/>
	<path class="st8" d="M110.8,210.1h-7.3c-13.7,0-24.9-11.1-24.9-24.9v-3.3c0-13.7,11.1-24.9,24.9-24.9h7.3
		c13.7,0,24.9,11.1,24.9,24.9v3.3C135.7,199,124.6,210.1,110.8,210.1z"/>
	<rect x="78.7" y="171.9" class="st6" width="57" height="23.3"/>
	
		<ellipse transform="matrix(0.7071 -0.7071 0.7071 0.7071 -98.41 129.5558)" class="st13" cx="107.2" cy="183.6" rx="17.5" ry="17.5"/>
	
		<ellipse transform="matrix(0.9239 -0.3827 0.3827 0.9239 -62.0768 54.9877)" class="st17" cx="107.2" cy="183.5" rx="14.8" ry="14.8"/>
	
		<ellipse transform="matrix(0.2298 -0.9732 0.9732 0.2298 -96.1014 245.7092)" class="st16" cx="107.2" cy="183.6" rx="12.7" ry="12.7"/>
	
		<ellipse transform="matrix(0.2298 -0.9732 0.9732 0.2298 -96.0677 245.6825)" class="st18" cx="107.2" cy="183.5" rx="7.8" ry="7.8"/>
	<path class="st8" d="M106.5,177.7c0,2.4-1.9,4.3-4.3,4.3c-2.4,0-4.3-1.9-4.3-4.3c0-2.4,1.9-4.3,4.3-4.3
		C104.6,173.4,106.5,175.3,106.5,177.7z"/>
	<path class="st8" d="M99.9,184.2c0,0.8-0.6,1.4-1.4,1.4c-0.8,0-1.4-0.6-1.4-1.4c0-0.8,0.6-1.4,1.4-1.4
		C99.3,182.8,99.9,183.4,99.9,184.2z"/>
	<path class="st19" d="M102.9,176.3c0,1-0.8,1.9-1.9,1.9c-1,0-1.9-0.8-1.9-1.9c0-1,0.8-1.9,1.9-1.9
		C102,174.4,102.9,175.2,102.9,176.3z"/>
	<circle class="st8" cx="113.5" cy="189.3" r="2.6"/>
	<path class="st14" d="M92,167.8h-6.9c-1.1,0-2.1-0.9-2.1-2.1l0,0c0-1.1,0.9-2.1,2.1-2.1H92c1.1,0,2.1,0.9,2.1,2.1l0,0
		C94,166.8,93.1,167.8,92,167.8z"/>
	<g>
		<polygon class="st20" points="327.6,229.3 316.8,268.1 283,258.7 296,212 322.4,219.3 		"/>
		<polygon class="st21" points="327.6,229.3 325.5,236.9 320.1,227.3 323.1,224.7 		"/>
		<polygon class="st22" points="327.6,229.3 320.1,227.3 322.4,219.3 		"/>
		
			<rect x="298.1" y="221.4" transform="matrix(0.9635 0.2677 -0.2677 0.9635 70.63 -73.002)" class="st9" width="9.9" height="2.2"/>
		<g>
			
				<rect x="295.9" y="230.5" transform="matrix(0.9635 0.2677 -0.2677 0.9635 73.2143 -74.2338)" class="st23" width="25.9" height="1.7"/>
			
				<rect x="294.9" y="234" transform="matrix(0.9635 0.2677 -0.2677 0.9635 74.1165 -73.8457)" class="st23" width="25.9" height="1.7"/>
			
				<rect x="294" y="237.5" transform="matrix(0.9635 0.2677 -0.2677 0.9635 75.0185 -73.4574)" class="st23" width="25.9" height="1.7"/>
			
				<rect x="293" y="241" transform="matrix(0.9635 0.2677 -0.2677 0.9635 75.9205 -73.0691)" class="st23" width="25.9" height="1.7"/>
			
				<rect x="292" y="244.5" transform="matrix(0.9635 0.2677 -0.2677 0.9635 76.8224 -72.6808)" class="st23" width="25.9" height="1.7"/>
			
				<rect x="291" y="248" transform="matrix(0.9635 0.2677 -0.2677 0.9635 77.7244 -72.2925)" class="st23" width="25.9" height="1.7"/>
			
				<rect x="290.1" y="251.6" transform="matrix(0.9635 0.2677 -0.2677 0.9635 78.6264 -71.9042)" class="st23" width="25.9" height="1.7"/>
		</g>
	</g>
	<path class="st14" d="M133.4,307.2l-7.8,4.9c-3.4,2.1-7.9,1.1-10-2.3l-0.5-0.8c-2.1-3.4-1.1-7.9,2.3-10l7.8-4.9
		c3.4-2.1,7.9-1.1,10,2.3l0.5,0.8C137.8,300.5,136.8,305,133.4,307.2z"/>
	<polygon class="st8" points="129.9,300.4 125.4,308.8 120.3,300.7 	"/>
</g>
</svg>
